<?xml version="1.0" encoding="UTF-8"?>
<svg width="51px" height="40px" viewBox="0 0 51 40" version="1.1" xmlns="http://www.w3.org/2000/svg" xmlns:xlink="http://www.w3.org/1999/xlink">
    <!-- Generator: Sketch 42 (36781) - http://www.bohemiancoding.com/sketch -->
    <title>Logo</title>
    <desc>Created with Sketch.</desc>
    <defs></defs>
    <g id="Page-1" stroke="none" stroke-width="1" fill="none" fill-rule="evenodd" opacity="0.900000036">
        <g id="Desktop" transform="translate(-30.000000, -15.000000)">
            <g id="Header">
                <g id="Logo" transform="translate(30.000000, 15.000000)">
                    <path d="M25.3333277,18.1683099 C25.6394052,18.1683099 25.7999234,18.4471858 25.7999234,19.0112884 C25.7999234,19.2288799 25.6092547,19.5423672 25.2269097,19.9524649 C24.8434796,20.3619274 24.4870997,20.5672938 24.1553672,20.5672938 C23.7637988,20.5672938 23.3805237,20.3435897 22.9827547,19.892133 C22.5914964,19.4397237 22.3949371,19.0364531 22.3949371,18.6777169 C22.3949371,17.6531873 22.7109356,16.7726602 23.3391347,16.0334365 C23.964931,15.2956418 24.5897198,14.9246805 25.2190815,14.9246805 C25.9409097,14.9310312 26.565466,15.3470033 27.09151,16.1895054 C27.6196468,17.032087 27.882165,18.1586251 27.882165,19.5645947 C27.8788322,21.1529094 27.6446818,22.7925855 27.1716529,24.4856871 C26.7061422,26.1828372 25.6291742,28.431706 23.9336179,31.2236405 C22.2387593,34.023196 21.184966,35.8416448 20.7730131,36.6866873 C18.1435678,30.3139001 16.452507,25.6642216 15.6916924,22.7383663 C13.7663261,28.6023815 12.2026103,33.503866 10.9955845,37.4427403 L9.85513769,37.6471541 C8.45124255,33.4713186 7.62260881,30.960959 7.36303587,30.1161546 C7.10292036,29.2775423 6.55098875,27.7072478 5.6998003,25.4016194 C4.85186717,23.1029769 4.13027143,21.5594348 3.54563161,20.7787727 C3.14576991,20.9326189 2.61391277,21.2463444 1.96021368,21.7258236 C1.3065921,22.199746 0.822247112,22.5333968 0.500668085,22.7104231 C0.257216717,22.4154322 0.0899553191,22.1425101 -3.10030395e-05,21.8861792 C1.37937173,21.2295943 3.5260997,19.8653806 6.44968632,17.7875843 C7.09547964,19.4844963 7.84513313,22.4567119 8.70787021,26.7026435 C9.56425167,30.9483369 10.220896,33.8432325 10.6773383,35.3924109 C12.9686954,28.9372231 14.3977805,23.4615543 14.9602532,18.9633405 L12.5379857,19.0850361 L12.4587729,18.2041915 C13.5286878,18.2041915 14.8976271,18.1146463 16.5828748,17.9346829 C18.2685875,17.762499 19.5464553,17.543558 20.4095024,17.2809558 L20.5311894,18.4961658 C19.0740465,18.6462015 18.1495359,18.7294753 17.7462638,18.7617846 C18.609931,23.980805 19.3183505,27.5546717 19.8814432,29.4787013 C20.4350799,31.3996348 20.8917547,32.7352703 21.2540252,33.4906883 L23.2210906,30.6798603 C23.8918413,29.7087561 24.5020587,28.6689053 25.0587957,27.5633246 C25.6151453,26.4552036 26.065697,25.2999286 26.4128535,24.0986902 C26.7621027,22.8916567 26.9378125,21.7204255 26.9378125,20.5672938 C26.9378125,19.3111217 26.7030419,18.293816 26.2282304,17.5256172 C25.7560541,16.7502739 25.1839705,16.3593078 24.5188003,16.3593078 C23.8085982,16.3593078 23.4577213,16.6990712 23.4577213,17.3678019 C23.4577213,17.7109788 23.5707274,18.0818608 23.7953444,18.485052 C24.0236818,18.8885608 24.2619401,19.0879733 24.5188003,19.0879733 C25.1427365,19.0879733 25.4208337,18.7832976 25.3333277,18.1683099" id="Fill-1" fill="#00A85C"></path>
                    <path d="M37.4460137,38.6720171 C34.3570258,38.6720171 32.4304195,38.7232992 31.671465,38.826419 C30.9155334,38.9250933 30.2547036,39.037501 29.692231,39.1612606 L29.692231,38.0311503 L32.2750167,37.9513694 C32.2842401,32.0174168 31.9806429,26.3432087 31.3813541,20.9266016 L29.1609939,20.8422164 L29.1609939,20.0834643 C30.5372964,20.1122013 31.4892447,20.1250615 32.0245897,20.1250615 C32.9720426,20.1250615 34.2507629,19.8757958 35.8550152,19.3698817 L35.85269,20.3110582 L34.0500957,20.7616417 L33.6248891,27.3685322 L33.1376763,37.7876002 C34.6566702,37.7876002 36.093041,37.7021037 37.4460137,37.524998 L37.4460137,38.6720171 Z" id="Fill-4" fill="#ED1A3A"></path>
                    <path d="M50.9581459,17.5506073 C49.8366884,20.1633722 47.9953404,23.1671827 45.4282888,26.5737874 C42.8613921,29.9788045 40.5325213,32.4724141 38.4298951,34.0573946 C40.035155,33.8404382 41.2824848,33.7312058 42.1791702,33.7312058 C45.0241641,33.7343812 47.4514696,34.2276733 49.47031,35.2143367 C49.6425319,34.1184409 49.7580957,32.8250377 49.8083982,31.3326189 L50.7935973,31.4160514 C50.2547644,33.8951338 50.0088328,36.2867349 50.0451839,38.5986346 L49.2646824,38.5562436 C49.2394924,38.0901802 49.2236809,37.8201159 49.2236809,37.7371596 C49.2236809,37.3530206 49.2922751,36.8339287 49.4263632,36.1777407 C47.4139559,35.3801699 45.5191277,34.9831706 43.7429635,34.9831706 C41.5764711,34.9831706 39.1663723,35.392395 36.5080167,36.2132254 L35.847962,35.0224657 C38.0407295,33.7669286 40.3404574,31.3967611 42.7481535,27.9265698 C45.1644529,24.4544733 46.7253784,21.3480988 47.4327903,18.6141145 C44.5875638,19.3373025 42.6727386,19.7023895 41.6858343,19.699611 C40.6162295,19.699611 39.6090182,19.4139875 38.667766,18.8473446 C37.7337994,18.2807018 37.2588328,17.5376677 37.2588328,16.6224498 C37.2588328,15.8534572 37.643348,15.2255299 38.40269,14.7455743 C39.1617994,14.2585536 39.999734,14.0155593 40.9063404,14.0155593 C41.6138298,14.0155593 42.2511748,14.1689291 42.8211657,14.4799555 C43.3896064,14.7869334 43.670959,15.2067159 43.670959,15.7418433 C43.6675486,16.1929031 43.3424043,16.564817 42.6899453,16.8592522 C42.0327584,17.1533698 41.4098298,17.3004684 40.825655,17.2978487 C40.0911155,17.2978487 39.7220243,16.9776137 39.7220243,16.3334127 C39.7220243,16.0452489 40.0088024,15.8658411 40.5886368,15.7828848 C40.5850714,16.3687386 40.8978921,16.6631738 41.539035,16.6631738 C41.7258283,16.6631738 41.9106839,16.6224498 42.0922067,16.5419544 C42.2765973,16.4582837 42.3672036,16.3463523 42.3672036,16.2123521 C42.3672036,15.8274192 42.1231322,15.4940065 41.6425076,15.2067159 C41.1579301,14.917917 40.6909468,14.7775661 40.2350471,14.7744701 C39.728845,14.7744701 39.2467477,14.937366 38.7970486,15.2572041 C38.346652,15.5781535 38.1209498,15.9653886 38.1209498,16.4170834 C38.1209498,17.0065095 38.4371809,17.4609828 39.0722006,17.7812971 C39.7068328,18.1011352 40.8503799,18.2650631 42.5068723,18.2650631 C45.6178723,18.2680797 48.2883191,17.8517901 50.5184453,17.0183377 L50.9581459,17.5506073 Z" id="Fill-7" fill="#005996"></path>
                    <path d="M32.6564316,18.7617925 C31.0239666,19.0112963 28.7479559,16.270485 28.4669134,13.4586251 C28.3128283,11.9463602 28.769348,10.768302 29.1744802,9.71829007 C30.273848,6.87753433 31.3305091,6.90373105 32.0644286,4.47267603 C32.5964407,2.72479956 32.7209954,2.24420894 32.6189179,0.531261411 C32.6061292,0.315654521 32.2867204,-0.298698103 32.7209954,0.175144876 C32.9720426,0.399563388 34.0039787,2.19959514 33.919883,4.02812574 C33.9171702,4.19125982 33.8875623,4.6135826 33.8126125,5.14513773 C33.6812371,6.0486862 33.563193,6.21499563 33.3717492,7.20737477 C33.1562006,8.34097801 33.165734,8.89817417 33.3152462,9.44004922 C33.4091079,9.77870128 33.5469164,10.0698023 33.6444985,10.0542431 C33.8037766,10.0320156 33.6380653,9.17363658 34.1323313,8.43655632 C34.3786505,8.08155116 34.7353404,7.80918473 34.8405182,7.87943955 C34.9766216,7.96961975 34.5754422,8.52713344 34.5692416,9.27635945 C34.5692416,9.84609828 35.0893176,10.6979678 35.1694605,10.8929348 C35.7957219,11.7872747 36.3393602,12.9298484 36.2544894,14.1311662 C36.2544894,14.9569183 35.9733693,15.5846868 35.8207568,15.9180995 C35.2130198,17.2374613 34.1775182,17.9156386 33.6410106,18.2619116 C33.1539529,18.5684131 32.9130593,18.7199571 32.6564316,18.7617925" id="Fill-9" fill="#FFF100"></path>
                </g>
            </g>
        </g>
    </g>
</svg>